<svg width="26" height="28" viewBox="0 0 26 28" fill="none" xmlns="http://www.w3.org/2000/svg">
<path d="M17.7895 14C18.1772 14 18.5024 13.8656 18.7652 13.5968C19.0279 13.328 19.1588 12.9957 19.1579 12.6C19.1579 12.2033 19.0265 11.8706 18.7638 11.6018C18.501 11.333 18.1763 11.1991 17.7895 11.2H12.3158C11.9281 11.2 11.6028 11.3344 11.3401 11.6032C11.0774 11.872 10.9465 12.2043 10.9474 12.6C10.9474 12.9967 11.0787 13.3294 11.3415 13.5982C11.6042 13.867 11.929 14.0009 12.3158 14H17.7895ZM17.7895 8.4C18.1772 8.4 18.5024 8.2656 18.7652 7.9968C19.0279 7.728 19.1588 7.39573 19.1579 7C19.1579 6.60333 19.0265 6.2706 18.7638 6.0018C18.501 5.733 18.1763 5.59907 17.7895 5.6H12.3158C11.9281 5.6 11.6028 5.7344 11.3401 6.0032C11.0774 6.272 10.9465 6.60427 10.9474 7C10.9474 7.39667 11.0787 7.7294 11.3415 7.9982C11.6042 8.267 11.929 8.40093 12.3158 8.4H17.7895ZM19.1579 23.8H16.421C16.0333 23.8 15.7081 23.6656 15.4454 23.3968C15.1826 23.128 15.0517 22.7957 15.0526 22.4C15.0526 22.0033 15.184 21.6706 15.4467 21.4018C15.7095 21.133 16.0342 20.9991 16.421 21H19.1579V18.2C19.1579 17.8033 19.2893 17.4706 19.552 17.2018C19.8147 16.933 20.1395 16.7991 20.5263 16.8C20.914 16.8 21.2393 16.9344 21.502 17.2032C21.7647 17.472 21.8956 17.8043 21.8947 18.2V21H24.6316C25.0193 21 25.3445 21.1344 25.6073 21.4032C25.87 21.672 26.0009 22.0043 26 22.4C26 22.7967 25.8686 23.1294 25.6059 23.3982C25.3432 23.667 25.0184 23.8009 24.6316 23.8H21.8947V26.6C21.8947 26.9967 21.7634 27.3294 21.5006 27.5982C21.2379 27.867 20.9131 28.0009 20.5263 28C20.1386 28 19.8134 27.8656 19.5506 27.5968C19.2879 27.328 19.157 26.9957 19.1579 26.6V23.8ZM6.84211 19.6C7.22983 19.6 7.55505 19.4656 7.81779 19.1968C8.08053 18.928 8.21144 18.5957 8.21053 18.2C8.21053 17.8033 8.07916 17.4706 7.81642 17.2018C7.55368 16.933 7.22891 16.7991 6.84211 16.8C6.45439 16.8 6.12916 16.9344 5.86642 17.2032C5.60369 17.472 5.47277 17.8043 5.47368 18.2C5.47368 18.5967 5.60505 18.9294 5.86779 19.1982C6.13053 19.467 6.4553 19.6009 6.84211 19.6ZM6.84211 14C7.22983 14 7.55505 13.8656 7.81779 13.5968C8.08053 13.328 8.21144 12.9957 8.21053 12.6C8.21053 12.2033 8.07916 11.8706 7.81642 11.6018C7.55368 11.333 7.22891 11.1991 6.84211 11.2C6.45439 11.2 6.12916 11.3344 5.86642 11.6032C5.60369 11.872 5.47277 12.2043 5.47368 12.6C5.47368 12.9967 5.60505 13.3294 5.86779 13.5982C6.13053 13.867 6.4553 14.0009 6.84211 14ZM6.84211 8.4C7.22983 8.4 7.55505 8.2656 7.81779 7.9968C8.08053 7.728 8.21144 7.39573 8.21053 7C8.21053 6.60333 8.07916 6.2706 7.81642 6.0018C7.55368 5.733 7.22891 5.59907 6.84211 5.6C6.45439 5.6 6.12916 5.7344 5.86642 6.0032C5.60369 6.272 5.47277 6.60427 5.47368 7C5.47368 7.39667 5.60505 7.7294 5.86779 7.9982C6.13053 8.267 6.4553 8.40093 6.84211 8.4ZM2.73684 25.2C1.98421 25.2 1.33969 24.9256 0.803265 24.3768C0.266844 23.828 -0.000909957 23.1691 2.3233e-06 22.4V2.8C2.3233e-06 2.03 0.268213 1.3706 0.804634 0.821802C1.34105 0.273002 1.98512 -0.000930956 2.73684 2.37691e-06H21.8947C22.6474 2.37691e-06 23.2919 0.274402 23.8283 0.823202C24.3647 1.372 24.6325 2.03094 24.6316 2.8V15.155C24.0158 14.7817 23.3599 14.5017 22.6638 14.315C21.9677 14.1283 21.2552 14.035 20.5263 14.035C19.3175 14.035 18.1886 14.28 17.1395 14.77C16.0903 15.26 15.1895 15.9367 14.4368 16.8H12.3158C11.9281 16.8 11.6028 16.9344 11.3401 17.2032C11.0774 17.472 10.9465 17.8043 10.9474 18.2C10.9474 18.5967 11.0787 18.9294 11.3415 19.1982C11.6042 19.467 11.929 19.6009 12.3158 19.6H12.7947C12.6351 20.0433 12.5151 20.4983 12.4348 20.965C12.3546 21.4317 12.3149 21.91 12.3158 22.4C12.3158 22.8667 12.35 23.3333 12.4184 23.8C12.4868 24.2667 12.6009 24.7333 12.7605 25.2H2.73684Z" fill="#FCBD00"/>
</svg>
