<svg width="30" height="30" viewBox="0 0 30 30" fill="none" xmlns="http://www.w3.org/2000/svg">
<path d="M2.25 4.875C2.25 3.426 3.426 2.25 4.875 2.25H9.375C9.67337 2.25 9.95952 2.13147 10.1705 1.9205C10.3815 1.70952 10.5 1.42337 10.5 1.125C10.5 0.826631 10.3815 0.540483 10.1705 0.329505C9.95952 0.118526 9.67337 6.28765e-09 9.375 0H4.875C3.58207 0 2.34209 0.513614 1.42785 1.42785C0.513614 2.34209 0 3.58207 0 4.875V9.375C6.28765e-09 9.67337 0.118526 9.95952 0.329505 10.1705C0.540483 10.3815 0.826631 10.5 1.125 10.5C1.42337 10.5 1.70952 10.3815 1.9205 10.1705C2.13147 9.95952 2.25 9.67337 2.25 9.375V4.875ZM27.75 4.875C27.75 4.17881 27.4734 3.51113 26.9812 3.01884C26.4889 2.52656 25.8212 2.25 25.125 2.25H20.625C20.3266 2.25 20.0405 2.13147 19.8295 1.9205C19.6185 1.70952 19.5 1.42337 19.5 1.125C19.5 0.826631 19.6185 0.540483 19.8295 0.329505C20.0405 0.118526 20.3266 6.28765e-09 20.625 0H25.125C25.7652 0 26.3991 0.126096 26.9906 0.371087C27.582 0.616079 28.1195 0.975169 28.5721 1.42785C29.0248 1.88054 29.3839 2.41796 29.6289 3.00942C29.8739 3.60088 30 4.23481 30 4.875V9.375C30 9.67337 29.8815 9.95952 29.6705 10.1705C29.4595 10.3815 29.1734 10.5 28.875 10.5C28.5766 10.5 28.2905 10.3815 28.0795 10.1705C27.8685 9.95952 27.75 9.67337 27.75 9.375V4.875ZM4.875 27.75C4.17881 27.75 3.51113 27.4734 3.01884 26.9812C2.52656 26.4889 2.25 25.8212 2.25 25.125V20.625C2.25 20.3266 2.13147 20.0405 1.9205 19.8295C1.70952 19.6185 1.42337 19.5 1.125 19.5C0.826631 19.5 0.540483 19.6185 0.329505 19.8295C0.118526 20.0405 6.28765e-09 20.3266 0 20.625V25.125C0 25.7652 0.126096 26.3991 0.371087 26.9906C0.616079 27.582 0.975169 28.1195 1.42785 28.5721C1.88054 29.0248 2.41796 29.3839 3.00942 29.6289C3.60088 29.8739 4.23481 30 4.875 30H9.375C9.67337 30 9.95952 29.8815 10.1705 29.6705C10.3815 29.4595 10.5 29.1734 10.5 28.875C10.5 28.5766 10.3815 28.2905 10.1705 28.0795C9.95952 27.8685 9.67337 27.75 9.375 27.75H4.875ZM27.75 25.125C27.75 25.8212 27.4734 26.4889 26.9812 26.9812C26.4889 27.4734 25.8212 27.75 25.125 27.75H20.625C20.3266 27.75 20.0405 27.8685 19.8295 28.0795C19.6185 28.2905 19.5 28.5766 19.5 28.875C19.5 29.1734 19.6185 29.4595 19.8295 29.6705C20.0405 29.8815 20.3266 30 20.625 30H25.125C25.7652 30 26.3991 29.8739 26.9906 29.6289C27.582 29.3839 28.1195 29.0248 28.5721 28.5721C29.0248 28.1195 29.3839 27.582 29.6289 26.9906C29.8739 26.3991 30 25.7652 30 25.125V20.625C30 20.3266 29.8815 20.0405 29.6705 19.8295C29.4595 19.6185 29.1734 19.5 28.875 19.5C28.5766 19.5 28.2905 19.6185 28.0795 19.8295C27.8685 20.0405 27.75 20.3266 27.75 20.625V25.125ZM17.73 9.3405C17.4169 8.90978 17.0064 8.55925 16.5319 8.31756C16.0574 8.07586 15.5325 7.94987 15 7.94987C14.4675 7.94987 13.9426 8.07586 13.4681 8.31756C12.9936 8.55925 12.5831 8.90978 12.27 9.3405L7.689 15.6405C6.066 17.871 7.659 21 10.419 21H19.581C22.341 21 23.934 17.871 22.311 15.6405L17.73 9.3405Z" fill="#FCBD00"/>
</svg>
